<svg width="24" height="24" viewBox="0 0 24 24" fill="none" xmlns="http://www.w3.org/2000/svg">
<circle cx="12" cy="12" r="12" fill="#2E4EA4"/>
<g clip-path="url(#clip0_24_115)">
<path d="M9.5 17H8C7.73478 17 7.48043 16.8946 7.29289 16.7071C7.10536 16.5196 7 16.2652 7 16V12.5C7 12.2348 7.10536 11.9804 7.29289 11.7929C7.48043 11.6054 7.73478 11.5 8 11.5H9.5M13 10.5V8.5C13 8.10218 12.842 7.72064 12.5607 7.43934C12.2794 7.15804 11.8978 7 11.5 7L9.5 11.5V17H15.14C15.3812 17.0027 15.6152 16.9182 15.799 16.762C15.9827 16.6058 16.1038 16.3885 16.14 16.15L16.83 11.65C16.8518 11.5067 16.8421 11.3603 16.8017 11.2211C16.7613 11.0819 16.6911 10.9531 16.5959 10.8438C16.5008 10.7344 16.383 10.647 16.2508 10.5876C16.1185 10.5283 15.975 10.4984 15.83 10.5H13Z" stroke="white" stroke-linecap="round" stroke-linejoin="round"/>
</g>
<defs>
<clipPath id="clip0_24_115">
<rect width="12" height="12" fill="white" transform="translate(6 6)"/>
</clipPath>
</defs>
</svg>
